<svg width="25" height="24" viewBox="0 0 25 24" fill="none" xmlns="http://www.w3.org/2000/svg">
<path d="M11.6035 21.2372L11.6019 21.2356L9.89235 19.5461L11.6035 21.2372ZM11.6035 21.2372C12.2879 21.9076 13.3889 21.9076 14.0733 21.2372L14.0749 21.2356M11.6035 21.2372L14.0749 21.2356M14.0749 21.2356L15.7844 19.5461L14.0749 21.2356ZM4.08337 4.96997C4.08337 3.46802 5.32308 2.25 6.83337 2.25H18.8334C20.3422 2.25 21.5834 3.45656 21.5834 4.96997V15.88C21.5834 17.382 20.3437 18.6 18.8334 18.6H18.0834C17.2266 18.6 16.3924 18.9469 15.7848 19.5456L4.08337 4.96997ZM4.08337 4.96997V15.88M4.08337 4.96997V15.88M4.08337 15.88C4.08337 17.3934 5.32455 18.6 6.83337 18.6M4.08337 15.88L6.83337 18.6M6.83337 18.6H7.59338M6.83337 18.6H7.59338M7.59338 18.6C8.45011 18.6 9.28426 18.9469 9.89188 19.5456L7.59338 18.6ZM11.2469 21.5965L11.2448 21.5944L9.5369 19.9065C9.53654 19.9061 9.53618 19.9057 9.53582 19.9054C9.0184 19.3886 8.3101 19.11 7.59338 19.11H6.83337C5.03602 19.11 3.58337 17.6604 3.58337 15.89V4.97998C3.58337 3.20961 5.03602 1.76001 6.83337 1.76001H18.8334C20.6307 1.76001 22.0834 3.20961 22.0834 4.97998V15.89C22.0834 17.6604 20.6307 19.11 18.8334 19.11H18.0734C17.351 19.11 16.6462 19.4023 16.1341 19.9022L16.1319 19.9044L14.4219 21.5944L14.4198 21.5965C13.9881 22.0282 13.4073 22.25 12.8334 22.25C12.2595 22.25 11.6786 22.0282 11.2469 21.5965Z" fill="#4B5563" stroke="#4B5563"/>
<path d="M12.8333 10.7501C11.1333 10.7501 9.7533 9.37004 9.7533 7.67004C9.7533 5.97004 11.1333 4.59009 12.8333 4.59009C14.5333 4.59009 15.9133 5.97004 15.9133 7.67004C15.9133 9.37004 14.5333 10.7501 12.8333 10.7501ZM12.8333 6.09009C11.9633 6.09009 11.2533 6.80004 11.2533 7.67004C11.2533 8.54004 11.9633 9.25006 12.8333 9.25006C13.7033 9.25006 14.4133 8.54004 14.4133 7.67004C14.4133 6.80004 13.7033 6.09009 12.8333 6.09009Z" fill="#4B5563"/>
<path d="M16.8334 16.4101C16.4234 16.4101 16.0834 16.0701 16.0834 15.6601C16.0834 14.2801 14.6234 13.1501 12.8334 13.1501C11.0434 13.1501 9.58337 14.2801 9.58337 15.6601C9.58337 16.0701 9.24337 16.4101 8.83337 16.4101C8.42337 16.4101 8.08337 16.0701 8.08337 15.6601C8.08337 13.4501 10.2134 11.6501 12.8334 11.6501C15.4534 11.6501 17.5834 13.4501 17.5834 15.6601C17.5834 16.0701 17.2434 16.4101 16.8334 16.4101Z" fill="#4B5563"/>
</svg>
